<?xml version="1.0" encoding="UTF-8"?>
<svg xmlns="http://www.w3.org/2000/svg" xmlns:xlink="http://www.w3.org/1999/xlink" width="512px" height="512px" viewBox="0 0 512 512" version="1.1">
<g id="surface1">
<rect x="0" y="0" width="512" height="512" style="fill:rgb(61.56863%,48.627451%,93.333334%);fill-opacity:1;stroke:none;"/>
<path style=" stroke:none;fill-rule:nonzero;fill:rgb(45.09804%,89.803922%,74.901962%);fill-opacity:1;" d="M 249.609375 334.265625 C 244.554688 327.753906 239.355469 321.023438 223.59375 311.921875 C 207.832031 302.820312 199.351562 301.652344 191.234375 300.5625 C 188.914062 300.238281 186.539062 299.882812 184.042969 299.390625 C 174.925781 302.738281 167.296875 310.199219 163.578125 319.578125 C 161.441406 324.921875 163.621094 331.128906 168.65625 334.035156 C 169.164062 334.328125 169.699219 334.570312 170.289062 334.84375 C 175.867188 337.042969 180.867188 337.425781 184.992188 337.09375 C 184.21875 343.359375 185.03125 351.351562 190.945312 359.308594 C 191.894531 360.605469 193.066406 361.621094 194.492188 362.441406 C 195.914062 363.265625 197.386719 363.773438 198.976562 363.949219 C 208.796875 365.144531 216.15625 361.796875 221.195312 357.996094 C 222.972656 361.734375 225.828125 365.824219 230.496094 369.601562 C 230.945312 369.996094 231.453125 370.292969 232.011719 370.613281 C 237.046875 373.519531 243.511719 372.304688 247.074219 367.78125 C 253.285156 359.84375 255.980469 349.535156 254.320312 339.964844 C 252.542969 337.992188 251.101562 336.140625 249.609375 334.265625 Z M 249.609375 334.265625 "/>
<path style=" stroke:none;fill-rule:nonzero;fill:rgb(100%,25.098041%,43.921569%);fill-opacity:1;" d="M 268.570312 351.449219 C 258.453125 345.605469 253.984375 339.839844 249.609375 334.265625 C 244.554688 327.753906 239.355469 321.023438 223.59375 311.921875 C 207.828125 302.820312 199.347656 301.652344 191.234375 300.5625 C 184.269531 299.589844 177.039062 298.605469 166.871094 292.734375 C 155.328125 286.070312 148.191406 277.878906 145.632812 268.335938 C 143.074219 258.789062 145.164062 248.128906 151.828125 236.585938 C 169.175781 206.535156 198.726562 177.898438 230.835938 160.097656 C 265.042969 141.132812 296.640625 137.136719 317.539062 149.203125 C 338.4375 161.269531 350.773438 190.628906 351.453125 229.734375 C 352.0625 266.496094 342.066406 306.351562 324.714844 336.40625 C 318.050781 347.949219 309.863281 355.085938 300.320312 357.640625 C 290.773438 360.199219 280.113281 358.113281 268.570312 351.449219 Z M 268.570312 351.449219 "/>
<path style=" stroke:none;fill-rule:nonzero;fill:rgb(16.470589%,21.176471%,19.607843%);fill-opacity:1;" d="M 238.875 232.605469 C 236.332031 231.136719 231.246094 228.203125 223.90625 240.914062 C 216.570312 253.625 221.652344 256.5625 224.195312 258.03125 C 226.738281 259.496094 231.824219 262.433594 239.164062 249.722656 C 246.503906 237.007812 241.417969 234.074219 238.875 232.605469 Z M 238.875 232.605469 "/>
<path style=" stroke:none;fill-rule:nonzero;fill:rgb(16.470589%,21.176471%,19.607843%);fill-opacity:1;" d="M 284.640625 259.027344 C 282.097656 257.558594 277.011719 254.625 269.671875 267.335938 C 262.332031 280.046875 267.417969 282.984375 269.960938 284.453125 C 272.503906 285.921875 277.589844 288.855469 284.929688 276.144531 C 292.265625 263.429688 287.183594 260.496094 284.640625 259.027344 Z M 284.640625 259.027344 "/>
<path style=" stroke:none;fill-rule:nonzero;fill:rgb(16.470589%,21.176471%,19.607843%);fill-opacity:1;" d="M 285.242188 205.136719 C 282.703125 203.667969 277.617188 200.734375 270.277344 213.445312 C 262.9375 226.15625 268.023438 229.09375 270.566406 230.5625 C 273.109375 232.027344 278.191406 234.964844 285.53125 222.253906 C 292.871094 209.539062 287.785156 206.605469 285.242188 205.136719 Z M 285.242188 205.136719 "/>
<path style=" stroke:none;fill-rule:nonzero;fill:rgb(16.470589%,21.176471%,19.607843%);fill-opacity:1;" d="M 350.871094 285.808594 C 355.433594 267.222656 357.65625 247.757812 357.347656 229.613281 C 357.03125 210.785156 353.972656 193.425781 348.476562 179.335938 C 342.039062 163.007812 332.625 151.132812 320.472656 144.117188 C 308.316406 137.097656 293.324219 134.882812 276.015625 137.5 C 261.070312 139.789062 244.503906 145.816406 228.039062 154.957031 C 212.171875 163.765625 196.425781 175.417969 182.609375 188.664062 C 168.128906 202.472656 155.753906 218.039062 146.738281 233.652344 C 139.28125 246.566406 137 258.742188 140.015625 269.839844 C 142.953125 280.957031 151.015625 290.359375 163.933594 297.816406 C 166.066406 299.050781 168.058594 300.0625 169.976562 300.96875 C 164.824219 305.316406 160.667969 310.984375 158.128906 317.382812 C 154.910156 325.421875 158.1875 334.773438 165.714844 339.121094 C 166.476562 339.558594 167.320312 339.976562 168.171875 340.265625 C 172.003906 341.734375 175.664062 342.558594 178.929688 342.886719 C 179.292969 350.007812 181.753906 356.785156 186.234375 362.761719 C 187.695312 364.691406 189.445312 366.246094 191.53125 367.449219 C 193.613281 368.652344 195.882812 369.417969 198.234375 369.691406 C 205.652344 370.585938 212.75 369.328125 219.101562 366.078125 C 221.070312 368.773438 223.5625 371.5 226.75 374.085938 C 227.453125 374.628906 228.238281 375.148438 229 375.589844 C 236.527344 379.933594 246.265625 378.097656 251.621094 371.292969 C 255.890625 365.890625 258.722656 359.460938 259.910156 352.824219 C 261.652344 354.03125 263.523438 355.25 265.660156 356.480469 C 278.578125 363.9375 290.75 366.222656 301.847656 363.207031 C 312.9375 360.320312 322.339844 352.257812 329.796875 339.339844 C 338.808594 323.730469 346.101562 305.226562 350.871094 285.808594 Z M 242.371094 364.054688 C 240.546875 366.390625 237.335938 366.910156 234.84375 365.46875 C 234.589844 365.324219 234.335938 365.175781 234.109375 364.980469 C 223.542969 356.507812 224.164062 346.152344 224.164062 346.152344 C 224.164062 346.152344 216.152344 360.035156 199.589844 358.066406 C 198.78125 357.941406 198.035156 357.710938 197.371094 357.328125 C 196.710938 356.945312 196.085938 356.382812 195.625 355.777344 C 185.640625 342.421875 193.65625 328.539062 193.65625 328.539062 C 193.65625 328.539062 185 334.253906 172.378906 329.339844 C 172.09375 329.242188 171.839844 329.097656 171.585938 328.949219 C 169.09375 327.511719 167.933594 324.46875 169.046875 321.722656 C 172.199219 313.914062 178.246094 308.253906 184.625 305.425781 C 186.65625 305.785156 188.585938 306.085938 190.410156 306.324219 C 198.34375 307.378906 205.855469 308.460938 220.652344 317.003906 C 235.449219 325.546875 240.0625 331.535156 245.023438 337.855469 C 246.195312 339.347656 247.339844 340.886719 248.695312 342.417969 C 249.4375 349.351562 247.609375 357.453125 242.371094 364.054688 Z M 271.503906 346.363281 C 251.164062 334.621094 257.035156 324.449219 226.523438 306.835938 C 196.015625 289.222656 190.144531 299.390625 169.804688 287.648438 C 149.464844 275.902344 145.164062 259.863281 156.910156 239.523438 C 192.136719 178.503906 273.917969 130.800781 314.597656 154.285156 C 355.277344 177.773438 354.859375 272.449219 319.628906 333.46875 C 307.886719 353.808594 291.84375 358.105469 271.503906 346.363281 Z M 271.503906 346.363281 "/>
</g>
</svg>
